<mxfile host="app.diagrams.net" modified="2023-03-09T07:15:19.559Z" agent="5.0 (Windows NT 10.0; Win64; x64) AppleWebKit/537.36 (KHTML, like Gecko) Chrome/110.0.0.0 Safari/537.36 Edg/110.0.1587.63" version="20.7.4" etag="JCOCPcIJZiNdyd7I5z8S" type="github">
  <diagram id="V17r9dEa14_sdFjFuwnu" name="第 1 页">
    <mxGraphModel dx="747" dy="470" grid="1" gridSize="10" guides="1" tooltips="1" connect="1" arrows="1" fold="1" page="1" pageScale="1" pageWidth="827" pageHeight="1169" math="0" shadow="0">
      <root>
        <mxCell id="0" />
        <mxCell id="1" parent="0" />
      </root>
    </mxGraphModel>
  </diagram>
</mxfile>
